<svg width="24" height="24" viewBox="0 0 24 24" fill="none" xmlns="http://www.w3.org/2000/svg">
<path fill-rule="evenodd" clip-rule="evenodd" d="M3.73201 15.5492C1.77181 10.9832 3.88441 5.6922 8.45021 3.732C13.0166 1.7718 18.3076 3.884 20.268 8.45C22.2284 13.0166 20.1154 18.3078 15.5494 20.268C10.9834 22.2282 5.69261 20.116 3.73201 15.5492Z" stroke="#9747FF" stroke-linecap="round" stroke-linejoin="round"/>
<path d="M15.8 6.0284H18.5934C18.666 6.0284 18.6282 5.873 18.6282 5.8154V5.025L18.6284 3.3326V3.2M8.23796 18H5.44456C5.37196 18 5.40976 18.1554 5.40976 18.213V20.8284M9.99996 11.3764C9.99996 10.2848 10.8956 9.4 12 9.4C13.1044 9.4 14 10.2848 14 11.3764C14 13.4 12 15 12 15C12 15 9.99996 13.4 9.99996 11.3764Z" stroke="#9747FF" stroke-linecap="round" stroke-linejoin="round"/>
<path fill-rule="evenodd" clip-rule="evenodd" d="M9.99995 11.4C9.99995 10.2954 10.8952 9.40001 12 9.40001C13.1046 9.40001 14 10.2954 14 11.4C14 12.5046 13.1046 13.4 12 13.4C10.8952 13.4 9.99995 12.5046 9.99995 11.4Z" stroke="#9747FF" stroke-linecap="round" stroke-linejoin="round"/>
</svg>
