<svg width="24" height="24" viewBox="0 0 24 24" fill="none" xmlns="http://www.w3.org/2000/svg">
<path fill-rule="evenodd" clip-rule="evenodd" d="M17 16.1764C17 15.0848 17.8956 14.2 19 14.2C20.1044 14.2 21 15.0848 21 16.1764C21 18.2 19 19.8 19 19.8C19 19.8 17 18.2 17 16.1764ZM3 9.953C3 6.4444 5.8654 3.6 9.4 3.6C12.9346 3.6 15.8 6.4444 15.8 9.953C15.8 13.4614 9.4 21.6 9.4 21.6C9.4 21.6 3 13.4614 3 9.953Z" stroke="#9747FF" stroke-linecap="round" stroke-linejoin="round"/>
<path d="M9.40001 10.2C9.84183 10.2 10.2 9.84182 10.2 9.39999C10.2 8.95817 9.84183 8.59999 9.40001 8.59999C8.95818 8.59999 8.60001 8.95817 8.60001 9.39999C8.60001 9.84182 8.95818 10.2 9.40001 10.2Z" stroke="#9747FF" stroke-linecap="round" stroke-linejoin="round"/>
</svg>
