<svg width="24" height="24" viewBox="0 0 24 24" fill="none" xmlns="http://www.w3.org/2000/svg">
<path d="M13 6C13 8.7614 15.2386 11 18 11M13 6H4.6014C3.7168 6 3 6.716 3 7.5992V18.4008C3 19.284 3.717 20 4.6014 20H19.3986C20.2832 20 21 19.284 21 18.4008V10.0002C20.1352 10.6507 19.0821 11.0017 18 11M13 6H9V3L13.9998 2.9998C13.3493 3.86461 12.9983 4.91785 13 6ZM18 11V21M6 6V21M15.5 6H20.5M18 3.5V8.5" stroke="#9747FF" stroke-linecap="round" stroke-linejoin="round"/>
<path d="M18 11C20.7614 11 23 8.76142 23 6C23 3.23858 20.7614 1 18 1C15.2386 1 13 3.23858 13 6C13 8.76142 15.2386 11 18 11Z" stroke="#9747FF" stroke-linecap="round" stroke-linejoin="round"/>
</svg>
