<svg width="24" height="24" viewBox="0 0 24 24" fill="none" xmlns="http://www.w3.org/2000/svg">
<path d="M3 13L9 18H21M21 21L19 18M19 17H10M7 15L4.8 13M12.839 8.3752L8 21M19.728 11.1216L16.2004 9.6696L9.6884 6.9896L6.1612 5.5382C7.0916 3.2768 10.7406 2.1202 14.8108 3.7954C18.8808 5.4704 20.6586 8.8604 19.728 11.1214V11.1216Z" stroke="#9747FF" stroke-linecap="round" stroke-linejoin="round"/>
<path d="M9.83798 7.05139C9.83798 7.05139 10.486 5.82299 11.7466 5.07279C13.0074 4.32239 14.8114 3.79439 14.8114 3.79439M14.8114 3.79439L15.034 3.25279M14.8114 3.79439C14.8114 3.79439 15.7208 5.43899 16.0882 6.85959C16.4554 8.27979 16.2006 9.66999 16.2006 9.66999" stroke="#9747FF" stroke-linecap="round" stroke-linejoin="round"/>
</svg>
