<svg width="24" height="24" viewBox="0 0 24 24" fill="none" xmlns="http://www.w3.org/2000/svg">
<path fill-rule="evenodd" clip-rule="evenodd" d="M17.1818 17.5388C19.4904 16.0906 21 13.7026 21 11C21 6.5816 16.9698 3 12 3C7.0304 3 3 6.5816 3 11C3 15.4182 7.0304 19 12 19C12.4462 19 12.8846 18.9698 13.3134 18.9142C14.6608 20.2052 16.4872 21 18.5 21C19.3768 21 20.218 20.848 21 20.5714C19.4146 20.0108 18.0746 18.9318 17.1818 17.5388Z" stroke="#9747FF" stroke-linecap="round" stroke-linejoin="round"/>
<path fill-rule="evenodd" clip-rule="evenodd" d="M13.6556 7.60001C13.3537 7.59972 13.0559 7.66988 12.7858 7.8049C12.5158 7.93993 12.2809 8.13609 12.1 8.37781C11.9191 8.13614 11.6843 7.94001 11.4143 7.80499C11.1443 7.66997 10.8465 7.59978 10.5446 7.60001C9.47061 7.60001 8.60001 8.47061 8.60001 9.54461C8.60001 11.1 12.1 14.6 12.1 14.6C12.1 14.6 15.6 11.1 15.6 9.54461C15.6 8.47061 14.7292 7.60001 13.6556 7.60001Z" stroke="#9747FF" stroke-linecap="round" stroke-linejoin="round"/>
</svg>
