<svg width="24" height="24" viewBox="0 0 24 24" fill="none" xmlns="http://www.w3.org/2000/svg">
<path fill-rule="evenodd" clip-rule="evenodd" d="M17.1818 17.5388C19.4904 16.0906 21 13.7026 21 11C21 6.5816 16.9698 3 12 3C7.0304 3 3 6.5816 3 11C3 15.4182 7.0304 19 12 19C12.4462 19 12.8846 18.9698 13.3134 18.9142C14.6608 20.2052 16.4872 21 18.5 21C19.3768 21 20.218 20.848 21 20.5714C19.4146 20.0108 18.0746 18.9318 17.1818 17.5388Z" stroke="#9747FF" stroke-linecap="round" stroke-linejoin="round"/>
<path d="M12 15V10H11M10 15H14M12.8 7C12.8 6.78782 12.7157 6.58434 12.5657 6.43431C12.4157 6.28428 12.2122 6.2 12 6.2C11.7878 6.2 11.5843 6.28428 11.4343 6.43431C11.2843 6.58434 11.2 6.78782 11.2 7C11.2 7.21217 11.2843 7.41565 11.4343 7.56568C11.5843 7.71571 11.7878 7.8 12 7.8C12.2122 7.8 12.4157 7.71571 12.5657 7.56568C12.7157 7.41565 12.8 7.21217 12.8 7Z" stroke="#9747FF" stroke-linecap="round" stroke-linejoin="round"/>
</svg>
