<svg width="24" height="24" viewBox="0 0 24 24" fill="none" xmlns="http://www.w3.org/2000/svg">
<path fill-rule="evenodd" clip-rule="evenodd" d="M12.0044 19.6C11.8154 19.6 11.7572 19.586 11.5804 19.5358C11.703 19.1922 11.6388 18.811 11.6372 18.4402C11.6372 18.2446 11.6156 18.045 11.5806 17.8466C11.5386 17.6028 11.3334 17.0058 11.3072 16.948C10.9746 16.2234 10.4362 15.6584 9.80005 15.328C10.1882 14.3074 11.0294 13.6 12.0044 13.6C12.9722 13.6 13.808 14.2964 14.2 15.305L14.1786 15.3158C13.5344 15.6446 12.9878 16.2148 12.6518 16.9506C12.6262 17.0078 12.4198 17.604 12.3774 17.848C12.343 18.0464 12.3216 18.246 12.3216 18.442C12.3202 18.817 12.2528 19.1892 12.3776 19.5358C12.2438 19.5786 12.1196 19.6 12.0044 19.6Z" stroke="#9747FF" stroke-linecap="round" stroke-linejoin="round"/>
<path d="M16.1024 15C16.115 14.874 16.1222 14.747 16.1222 14.6186C16.1222 14.2906 16.0782 13.9724 16.0032 13.6666C17.0456 13.8794 17.941 14.1616 18.602 14.4814C18.8029 14.577 19.0226 14.6267 19.2452 14.6268C19.7888 14.6268 20.3102 14.3314 20.5652 13.8232C21.0218 12.9118 20.8204 12.3416 19.8916 11.9012C18.6896 11.3316 17.2112 10.9166 15.5556 10.67C16.1686 9.908 16.5374 8.9488 16.5374 7.9024C16.5361 7.64289 16.5118 7.38401 16.4648 7.1288C17.3746 6.72 18.0098 5.8264 18.0098 4.7838C18.0098 3.3562 16.8274 2.2012 15.3692 2.2002C14.898 2.19965 14.4353 2.32526 14.029 2.564C13.6228 2.80274 13.2879 3.14588 13.0592 3.5578C12.6987 3.46887 12.3289 3.42322 11.9576 3.4218C11.5778 3.4218 11.2096 3.4718 10.8556 3.5586C10.6271 3.14645 10.2924 2.80304 9.8863 2.5641C9.48015 2.32517 9.01739 2.19944 8.54617 2.2C7.08657 2.2012 5.90617 3.356 5.90477 4.7836C5.90577 5.826 6.54037 6.72 7.45057 7.1284C7.40258 7.38363 7.37794 7.6427 7.37697 7.9024C7.37697 8.9476 7.74537 9.9074 8.35837 10.6698C6.70397 10.9164 5.22517 11.3308 4.02277 11.8996C3.29477 12.2478 2.99357 13.1086 3.34877 13.822C3.70577 14.5326 4.58357 14.8272 5.31237 14.48C5.97237 14.16 6.86837 13.8784 7.90997 13.6654C7.83202 13.9766 7.79193 14.2961 7.79057 14.617C7.79057 14.746 7.79897 14.8714 7.81017 14.9976" stroke="#9747FF" stroke-linecap="round" stroke-linejoin="round"/>
<path fill-rule="evenodd" clip-rule="evenodd" d="M12 11.6C13.1046 11.6 14 10.7046 14 9.59999C14 8.49539 14 7.59999 12 7.59999C10 7.59999 10 8.49539 10 9.59999C10 10.7046 10.8954 11.6 12 11.6ZM8.24762 15.4886C9.57682 15.1194 10.9432 15.9372 11.2996 17.3154L11.5144 18.1474C11.8706 19.5254 11.0818 20.942 9.75242 21.3114C8.42322 21.6806 7.05682 20.8628 6.70042 19.4846L6.48562 18.6526C6.12942 17.2746 6.91822 15.858 8.24762 15.4886ZM15.9524 15.4886C17.2818 15.858 18.0706 17.2746 17.7144 18.6526L17.4994 19.4846C17.1434 20.8626 15.7768 21.6806 14.4474 21.3114C13.1182 20.942 12.3294 19.5254 12.6854 18.1474L12.9006 17.3154C13.2566 15.9374 14.623 15.1194 15.9524 15.4886Z" stroke="#9747FF" stroke-linecap="round" stroke-linejoin="round"/>
</svg>
