<svg width="24" height="24" viewBox="0 0 24 24" fill="none" xmlns="http://www.w3.org/2000/svg">
<path d="M21.7312 11.525C21.7312 12.5606 20.8078 13.4 19.6686 13.4C18.5296 13.4 17.6062 12.5606 17.6062 11.525C17.6062 10.4894 18.5296 8.19999 19.6686 8.19999C20.8078 8.19999 21.7312 10.4894 21.7312 11.525ZM17.1312 7.12499C17.1312 8.16059 16.2078 8.99999 15.0686 8.99999C13.9296 8.99999 13.0062 8.16059 13.0062 7.12499C13.0062 6.08939 13.9296 3.79999 15.0686 3.79999C16.2078 3.79999 17.1312 6.08939 17.1312 7.12499ZM11.1312 7.12499C11.1312 8.16059 10.2078 8.99999 9.06862 8.99999C7.92962 8.99999 7.00622 8.16059 7.00622 7.12499C7.00622 6.08939 7.92962 3.79999 9.06862 3.79999C10.2078 3.79999 11.1312 6.08939 11.1312 7.12499ZM6.52502 11.525C6.52502 12.5606 5.60162 13.4 4.46242 13.4C3.32342 13.4 2.40002 12.5606 2.40002 11.525C2.40002 10.4894 3.32342 8.19999 4.46242 8.19999C5.60162 8.19999 6.52502 10.4894 6.52502 11.525ZM18.0688 17.35C18.0688 18.1 18.0254 18.7888 16.9438 19.6C15.4438 20.725 13.5688 19.725 12.0688 19.725C10.5668 19.725 8.69382 20.725 7.19382 19.6C6.52302 19.0968 6.06882 18.1 6.06882 17.35C6.06882 15.1 9.81882 10.225 12.0688 10.225C14.3188 10.225 18.0688 15.1 18.0688 17.35Z" stroke="#9747FF" stroke-linecap="round" stroke-linejoin="round"/>
</svg>
