<svg width="24" height="24" viewBox="0 0 24 24" fill="none" xmlns="http://www.w3.org/2000/svg">
<path fill-rule="evenodd" clip-rule="evenodd" d="M3 3H9L21 15L15 21L3 9V3Z" stroke="#9747FF" stroke-linecap="round" stroke-linejoin="round"/>
<path fill-rule="evenodd" clip-rule="evenodd" d="M5.79999 6.59999C5.79999 6.38781 5.88427 6.18433 6.0343 6.0343C6.18433 5.88427 6.38781 5.79999 6.59999 5.79999C6.81216 5.79999 7.01564 5.88427 7.16567 6.0343C7.3157 6.18433 7.39999 6.38781 7.39999 6.59999C7.39999 6.81216 7.3157 7.01564 7.16567 7.16567C7.01564 7.3157 6.81216 7.39999 6.59999 7.39999C6.38781 7.39999 6.18433 7.3157 6.0343 7.16567C5.88427 7.01564 5.79999 6.81216 5.79999 6.59999Z" stroke="#9747FF" stroke-linecap="round" stroke-linejoin="round"/>
</svg>
