<svg width="24" height="24" viewBox="0 0 24 24" fill="none" xmlns="http://www.w3.org/2000/svg">
<path d="M3 19L15 15L17 8.00001H16L14 14L8 13V17.2M17.8 5.00001C17.8 5.21219 17.7157 5.41567 17.5657 5.5657C17.4157 5.71573 17.2122 5.80001 17 5.80001C16.7878 5.80001 16.5843 5.71573 16.4343 5.5657C16.2843 5.41567 16.2 5.21219 16.2 5.00001C16.2 4.78784 16.2843 4.58436 16.4343 4.43433C16.5843 4.2843 16.7878 4.20001 17 4.20001C17.2122 4.20001 17.4157 4.2843 17.5657 4.43433C17.7157 4.58436 17.8 4.78784 17.8 5.00001Z" stroke="#9747FF" stroke-linecap="round" stroke-linejoin="round"/>
<path fill-rule="evenodd" clip-rule="evenodd" d="M13 5.00006L15 8.00006H18L21 5.00006H17H13Z" stroke="#9747FF" stroke-linecap="round" stroke-linejoin="round"/>
</svg>
