<svg width="24" height="24" viewBox="0 0 24 24" fill="none" xmlns="http://www.w3.org/2000/svg">
<path d="M8.03301 5.00005V2.00005M5.55367 5.00005H18.2479C18.6687 5.00005 19.0723 5.16862 19.3699 5.46868C19.6675 5.76874 19.8347 6.1757 19.8347 6.60005V19.4C19.8347 19.8244 19.6675 20.2314 19.3699 20.5314C19.0723 20.8315 18.6687 21 18.2479 21H5.55367C5.13283 21 4.72923 20.8315 4.43165 20.5314C4.13407 20.2314 3.9669 19.8244 3.9669 19.4V6.60005C3.9669 6.1757 4.13407 5.76874 4.43165 5.46868C4.72923 5.16862 5.13283 5.00005 5.55367 5.00005Z" stroke="#9747FF" stroke-linecap="round" stroke-linejoin="round"/>
<path d="M15.7685 5.00005V2.00005M12.8925 13H10.909L11.9008 12L12.8925 13ZM7.93383 15H15.8677C16.9632 15 17.8512 15.8954 17.8512 17C17.8512 18.1046 16.9632 19 15.8677 19H7.93383C6.83836 19 5.95036 18.1046 5.95036 17C5.95036 15.8954 6.83836 15 7.93383 15ZM19.8347 9.00005H21.8181V15H19.8347V9.00005ZM1.98342 9.00005H3.96689V15H1.98342V9.00005Z" stroke="#9747FF" stroke-linecap="round" stroke-linejoin="round"/>
<path d="M7.93384 12C9.02928 12 9.91731 11.1046 9.91731 10C9.91731 8.89548 9.02928 8.00005 7.93384 8.00005C6.8384 8.00005 5.95037 8.89548 5.95037 10C5.95037 11.1046 6.8384 12 7.93384 12Z" stroke="#9747FF" stroke-linecap="round" stroke-linejoin="round"/>
<path d="M7.93384 2.80005C8.37202 2.80005 8.72723 2.44188 8.72723 2.00005C8.72723 1.55822 8.37202 1.20005 7.93384 1.20005C7.49567 1.20005 7.14045 1.55822 7.14045 2.00005C7.14045 2.44188 7.49567 2.80005 7.93384 2.80005Z" stroke="#9747FF" stroke-linecap="round" stroke-linejoin="round"/>
<path d="M15.8677 2.80005C16.3059 2.80005 16.6611 2.44188 16.6611 2.00005C16.6611 1.55822 16.3059 1.20005 15.8677 1.20005C15.4296 1.20005 15.0743 1.55822 15.0743 2.00005C15.0743 2.44188 15.4296 2.80005 15.8677 2.80005Z" stroke="#9747FF" stroke-linecap="round" stroke-linejoin="round"/>
<path d="M15.8677 12C16.9632 12 17.8512 11.1046 17.8512 10C17.8512 8.89548 16.9632 8.00005 15.8677 8.00005C14.7723 8.00005 13.8843 8.89548 13.8843 10C13.8843 11.1046 14.7723 12 15.8677 12Z" stroke="#9747FF" stroke-linecap="round" stroke-linejoin="round"/>
</svg>
