<svg width="24" height="24" viewBox="0 0 24 24" fill="none" xmlns="http://www.w3.org/2000/svg">
<g clip-path="url(#clip0_2016_594)">
<path d="M8.03303 5.00006V2.00006M5.5537 5.00006H18.2479C18.6688 5.00006 19.0724 5.16863 19.3699 5.46869C19.6675 5.76875 19.8347 6.17571 19.8347 6.60006V19.4001C19.8347 19.8244 19.6675 20.2314 19.3699 20.5314C19.0724 20.8315 18.6688 21.0001 18.2479 21.0001H5.5537C5.13286 21.0001 4.72925 20.8315 4.43168 20.5314C4.1341 20.2314 3.96692 19.8244 3.96692 19.4001V6.60006C3.96692 6.17571 4.1341 5.76875 4.43168 5.46869C4.72925 5.16863 5.13286 5.00006 5.5537 5.00006Z" stroke="#9747FF" stroke-linecap="round" stroke-linejoin="round"/>
<path d="M15.7686 5.00006V2.00006M12.8926 13.0001H10.9091L11.9008 12.0001L12.8926 13.0001ZM6.94214 15.0001H16.8595V16.5001C16.8595 17.8809 15.7495 19.0001 14.3802 19.0001H9.42148C8.05209 19.0001 6.94214 17.8809 6.94214 16.5001V15.0001Z" stroke="#9747FF" stroke-linecap="round" stroke-linejoin="round"/>
<path d="M7.93389 2.80007C8.37207 2.80007 8.72728 2.4419 8.72728 2.00007C8.72728 1.55825 8.37207 1.20007 7.93389 1.20007C7.49571 1.20007 7.1405 1.55825 7.1405 2.00007C7.1405 2.4419 7.49571 2.80007 7.93389 2.80007Z" stroke="#9747FF" stroke-linecap="round" stroke-linejoin="round"/>
<path d="M15.8678 2.80007C16.306 2.80007 16.6612 2.4419 16.6612 2.00007C16.6612 1.55825 16.306 1.20007 15.8678 1.20007C15.4296 1.20007 15.0744 1.55825 15.0744 2.00007C15.0744 2.4419 15.4296 2.80007 15.8678 2.80007Z" stroke="#9747FF" stroke-linecap="round" stroke-linejoin="round"/>
<path fill-rule="evenodd" clip-rule="evenodd" d="M19.8347 15.0001C21.4778 15.0001 22.8099 13.6569 22.8099 12.0001C22.8099 10.3433 21.4778 9.00006 19.8347 9.00006V15.0001ZM3.96697 15.0001C2.32386 15.0001 0.99176 13.6569 0.99176 12.0001C0.99176 10.3433 2.32386 9.00006 3.96697 9.00006V15.0001Z" stroke="#9747FF" stroke-linecap="round" stroke-linejoin="round"/>
<path d="M7.93391 12.0001C9.02935 12.0001 9.91738 11.1046 9.91738 10.0001C9.91738 8.89549 9.02935 8.00006 7.93391 8.00006C6.83847 8.00006 5.95044 8.89549 5.95044 10.0001C5.95044 11.1046 6.83847 12.0001 7.93391 12.0001Z" stroke="#9747FF" stroke-linecap="round" stroke-linejoin="round"/>
<path d="M15.8677 12.0001C16.9632 12.0001 17.8512 11.1046 17.8512 10.0001C17.8512 8.89549 16.9632 8.00006 15.8677 8.00006C14.7723 8.00006 13.8843 8.89549 13.8843 10.0001C13.8843 11.1046 14.7723 12.0001 15.8677 12.0001Z" stroke="#9747FF" stroke-linecap="round" stroke-linejoin="round"/>
</g>
<defs>
<clipPath id="clip0_2016_594">
<rect width="24" height="24" fill="white"/>
</clipPath>
</defs>
</svg>
