<svg width="24" height="24" viewBox="0 0 24 24" fill="none" xmlns="http://www.w3.org/2000/svg">
<path d="M15.6 11.9999H13M14 13.9999H16M15 15.9999H16.8M4 6.99993L7.9926 2.80733C8.18016 2.61979 8.43454 2.51445 8.69977 2.51447C8.965 2.51448 9.21937 2.61987 9.4069 2.80743C9.59443 2.99499 9.69978 3.24936 9.69976 3.5146C9.69974 3.77983 9.59436 4.03419 9.4068 4.22173C8.0244 5.60413 9.2358 6.26293 9.9514 6.95233L10 6.99993C10.9428 7.94273 12.276 8.60933 14 8.99993L16 7.99993L15.0638 9.87853L17 15.9999H19.4C19.8243 15.9999 20.2313 16.1685 20.5314 16.4686C20.8314 16.7686 21 17.1756 21 17.5999V19.3999C21 19.8243 20.8314 20.2312 20.5314 20.5313C20.2313 20.8314 19.8243 20.9999 19.4 20.9999H14.7078C14.4848 20.9999 14.2643 20.9533 14.0605 20.8631C13.8566 20.7729 13.6738 20.6411 13.5238 20.4761L4 9.99993C3 8.99993 3 7.99993 4 6.99993Z" stroke="#9747FF" stroke-linecap="round" stroke-linejoin="round"/>
<path d="M4 6.99988L15 18.9999H21M10 20.9999H3M5 14.9999H3M7 17.9999H3" stroke="#9747FF" stroke-linecap="round" stroke-linejoin="round"/>
</svg>
