<svg width="24" height="24" viewBox="0 0 24 24" fill="none" xmlns="http://www.w3.org/2000/svg">
<path fill-rule="evenodd" clip-rule="evenodd" d="M4.6 6.99988H7.4C7.82435 6.99988 8.23131 7.16845 8.53137 7.46851C8.83143 7.76857 9 8.17553 9 8.59988V15.9999H3V8.59988C3 8.17553 3.16857 7.76857 3.46863 7.46851C3.76869 7.16845 4.17565 6.99988 4.6 6.99988ZM21.0002 10.6339L21 15.9999H15V11.3065C15.7719 11.7085 16.6297 11.9178 17.5 11.9165C18.7821 11.9184 20.0229 11.4637 21.0002 10.6339Z" stroke="#9747FF" stroke-linecap="round" stroke-linejoin="round"/>
<path d="M7.5 6.99988H4.5C3.67157 6.99988 3 7.67145 3 8.49988C3 9.32831 3.67157 9.99988 4.5 9.99988H7.5C8.32843 9.99988 9 9.32831 9 8.49988C9 7.67145 8.32843 6.99988 7.5 6.99988Z" stroke="#9747FF" stroke-linecap="round" stroke-linejoin="round"/>
<path fill-rule="evenodd" clip-rule="evenodd" d="M12.106 6.99988C12.278 8.87648 13.4066 10.4759 15 11.3065V15.9999H9V8.59988C9 8.17553 9.16857 7.76857 9.46863 7.46851C9.76869 7.16845 10.1757 6.99988 10.6 6.99988H12.106Z" stroke="#9747FF" stroke-linecap="round" stroke-linejoin="round"/>
<path fill-rule="evenodd" clip-rule="evenodd" d="M12.0834 6.49991C12.0834 3.50831 14.5084 1.08331 17.5 1.08331C20.4916 1.08331 22.9166 3.50831 22.9166 6.49991C22.9166 9.49151 20.4916 11.9165 17.5 11.9165C14.5084 11.9165 12.0834 9.49151 12.0834 6.49991Z" stroke="#9747FF" stroke-linecap="round" stroke-linejoin="round"/>
<path d="M15.3334 7.04148L16.9584 8.68988L19.6666 4.87488M12.106 6.99988C12.2071 8.10582 12.6471 9.1536 13.366 10.0001L10.5 9.99988C10.1022 9.99988 9.72064 9.84184 9.43934 9.56054C9.15803 9.27923 9 8.8977 9 8.49988C9 8.10205 9.15803 7.72052 9.43934 7.43922C9.72064 7.15791 10.1022 6.99988 10.5 6.99988H12.106Z" stroke="#9747FF" stroke-linecap="round" stroke-linejoin="round"/>
<path d="M20.5 15.9999H3.5C2.67157 15.9999 2 16.6715 2 17.4999C2 18.3283 2.67157 18.9999 3.5 18.9999H20.5C21.3284 18.9999 22 18.3283 22 17.4999C22 16.6715 21.3284 15.9999 20.5 15.9999Z" stroke="#9747FF" stroke-linecap="round" stroke-linejoin="round"/>
<path d="M14.1 15.9999H10.1C9.27155 15.9999 8.59998 16.6715 8.59998 17.4999C8.59998 18.3283 9.27155 18.9999 10.1 18.9999H14.1C14.9284 18.9999 15.6 18.3283 15.6 17.4999C15.6 16.6715 14.9284 15.9999 14.1 15.9999Z" stroke="#9747FF" stroke-linecap="round" stroke-linejoin="round"/>
<path d="M3 18.9999V21.9999M9 18.9999V22.0483M15 18.9999V22.0483M21 18.9999V22.0483" stroke="#9747FF" stroke-linecap="round" stroke-linejoin="round"/>
</svg>
