<svg width="24" height="24" viewBox="0 0 24 24" fill="none" xmlns="http://www.w3.org/2000/svg">
<path fill-rule="evenodd" clip-rule="evenodd" d="M5.5 3C5.88054 2.99997 6.24686 3.14456 6.52478 3.40451C6.8027 3.66445 6.97143 4.02031 6.9968 4.4H7V10L10 17H16.2C17.3782 17 18.2 17.8218 18.2 19C18.2 20.1782 17.3782 21 16.2 21H7L4 10V4.4H4.0032C4.02857 4.02031 4.1973 3.66445 4.47522 3.40451C4.75314 3.14456 5.11946 2.99997 5.5 3Z" stroke="#9747FF" stroke-linecap="round" stroke-linejoin="round"/>
<path d="M20 17L17 14H12L10 10H15M10.8 7.00001C10.8 7.21219 10.7157 7.41567 10.5657 7.5657C10.4157 7.71573 10.2122 7.80001 10 7.80001C9.78782 7.80001 9.58434 7.71573 9.43431 7.5657C9.28428 7.41567 9.2 7.21219 9.2 7.00001C9.2 6.78784 9.28428 6.58436 9.43431 6.43433C9.58434 6.2843 9.78782 6.20001 10 6.20001C10.2122 6.20001 10.4157 6.2843 10.5657 6.43433C10.7157 6.58436 10.8 6.78784 10.8 7.00001Z" stroke="#9747FF" stroke-linecap="round" stroke-linejoin="round"/>
</svg>
