<svg width="24" height="24" viewBox="0 0 24 24" fill="none" xmlns="http://www.w3.org/2000/svg">
<path d="M10 21H16M13 21V17M13 11H5.60004M11.25 13.8H18.6C19.0244 13.8 19.4314 13.9686 19.7314 14.2686C20.0315 14.5687 20.2 14.9757 20.2 15.4C20.2 15.8243 20.0315 16.2313 19.7314 16.5314C19.4314 16.8314 19.0244 17 18.6 17H10.4C10.1383 17.0001 9.88053 16.9359 9.64935 16.8132C9.41816 16.6904 9.22062 16.5129 9.07404 16.296L4.47404 9.496C4.29535 9.23137 4.19992 8.91932 4.20004 8.6V4.6C4.20004 4.17565 4.36861 3.76869 4.66867 3.46863C4.96873 3.16857 5.3757 3 5.80004 3C6.22439 3 6.63136 3.16857 6.93141 3.46863C7.23147 3.76869 7.40004 4.17565 7.40004 4.6V8.11L11.25 13.8Z" stroke="#9747FF" stroke-linecap="round" stroke-linejoin="round"/>
<path d="M18.0001 11C20.7615 11 23.0001 8.76142 23.0001 6C23.0001 3.23858 20.7615 1 18.0001 1C15.2386 1 13.0001 3.23858 13.0001 6C13.0001 8.76142 15.2386 11 18.0001 11Z" stroke="#9747FF" stroke-linecap="round" stroke-linejoin="round"/>
<path d="M15.5001 6H20.5001M18.0001 3.5V8.5" stroke="#9747FF" stroke-linecap="round" stroke-linejoin="round"/>
</svg>
