<svg width="24" height="24" viewBox="0 0 24 24" fill="none" xmlns="http://www.w3.org/2000/svg">
<path d="M10 21H16M13 21V17M13 11H5.60001M11.2494 13.8H18.6C19.0244 13.8 19.4313 13.9685 19.7314 14.2686C20.0314 14.5687 20.2 14.9756 20.2 15.4C20.2 15.8243 20.0314 16.2313 19.7314 16.5313C19.4313 16.8314 19.0244 17 18.6 17H10.4C10.1384 17 9.88086 16.9358 9.64982 16.8131C9.41879 16.6905 9.22136 16.513 9.07481 16.2964L4.47481 9.49638C4.29576 9.23172 4.20005 8.91951 4.20001 8.59998V4.59998C4.20001 4.17563 4.36858 3.76866 4.66864 3.4686C4.9687 3.16855 5.37567 2.99998 5.80001 2.99998C6.22436 2.99998 6.63132 3.16855 6.93138 3.4686C7.23144 3.76866 7.40001 4.17563 7.40001 4.59998V8.10958L11.2494 13.8ZM18 7.32958L15.9604 8.79998L16.746 6.42978L14.7 4.96818L17.225 4.97358L18 2.59998L18.775 4.97358L21.3 4.96818L19.254 6.42978L20.0396 8.79998L18 7.32958Z" stroke="#9747FF" stroke-linecap="round" stroke-linejoin="round"/>
</svg>
