<svg width="24" height="24" viewBox="0 0 24 24" fill="none" xmlns="http://www.w3.org/2000/svg">
<path d="M11.8 9.00002V9.20002M23 12L17.6 21.6H6.6L1 12L6.6 2.40002H17.6L23 12Z" stroke="#9747FF" stroke-linecap="round" stroke-linejoin="round"/>
<path fill-rule="evenodd" clip-rule="evenodd" d="M15 13.0001V11.0001C15 9.89552 15.8954 9.00012 17 9.00012C18.1046 9.00012 19 9.89552 19 11.0001V13.0001C19 14.1047 18.1046 15.0001 17 15.0001C15.8954 15.0001 15 14.1047 15 13.0001ZM6 12.0001L8 12.0011C8.8 12.0011 9.5 12.6897 9.5 13.5001C9.5 13.8979 9.34197 14.2795 9.06066 14.5608C8.77936 14.8421 8.39782 15.0001 8 15.0001H6V9.00012H8C8.39782 9.00012 8.77936 9.15816 9.06066 9.43946C9.34197 9.72077 9.5 10.1023 9.5 10.5001C9.5 11.3285 8.8038 12.0011 8 12.0001H6Z" stroke="#9747FF" stroke-linecap="round" stroke-linejoin="round"/>
<path d="M11.8 11.0001V15.0001C13.2666 11.0001 15 9.00012 17 9.00012" stroke="#9747FF" stroke-linecap="round" stroke-linejoin="round"/>
</svg>
