<svg width="24" height="24" viewBox="0 0 24 24" fill="none" xmlns="http://www.w3.org/2000/svg">
<path d="M21.075 7.16249L18.075 8.16249L11.875 6.36249L10.075 8.16249" stroke="#9747FF" stroke-linecap="round" stroke-linejoin="round"/>
<path d="M14.275 18.1626L16.075 14.3626L13.088 10.2466L14.8912 7.23818M12.075 12.1626L10.075 14.1626H8.075M21.075 9.26258L19.075 18.2876M3 9.28358L7.975 9.26258M3.1 12.2626L9 18.1626M9 20.2876H20.1C20.2281 20.2876 20.3549 20.2624 20.4732 20.2133C20.5915 20.1643 20.699 20.0925 20.7895 20.0019C20.88 19.9114 20.9519 19.8039 21.0008 19.6856C21.0498 19.5672 21.075 19.4404 21.075 19.3124M16.8876 4.39998C16.8876 4.61215 16.8033 4.81563 16.6533 4.96566C16.5033 5.11569 16.2998 5.19998 16.0876 5.19998C15.8754 5.19998 15.6719 5.11569 15.5219 4.96566C15.3719 4.81563 15.2876 4.61215 15.2876 4.39998C15.2876 4.1878 15.3719 3.98432 15.5219 3.83429C15.6719 3.68426 15.8754 3.59998 16.0876 3.59998C16.2998 3.59998 16.5033 3.68426 16.6533 3.83429C16.8033 3.98432 16.8876 4.1878 16.8876 4.39998Z" stroke="#9747FF" stroke-linecap="round" stroke-linejoin="round"/>
</svg>
