<svg width="24" height="24" viewBox="0 0 24 24" fill="none" xmlns="http://www.w3.org/2000/svg">
<path d="M4.00001 4.80001C4.44184 4.80001 4.80001 4.44184 4.80001 4.00001C4.80001 3.55818 4.44184 3.20001 4.00001 3.20001C3.55818 3.20001 3.20001 3.55818 3.20001 4.00001C3.20001 4.44184 3.55818 4.80001 4.00001 4.80001Z" stroke="#9747FF" stroke-linecap="round" stroke-linejoin="round"/>
<path d="M20 4.79983C20.4419 4.79983 20.8 4.44166 20.8 3.99983C20.8 3.558 20.4419 3.19983 20 3.19983C19.5582 3.19983 19.2 3.558 19.2 3.99983C19.2 4.44166 19.5582 4.79983 20 4.79983Z" stroke="#9747FF" stroke-linecap="round" stroke-linejoin="round"/>
<path d="M3.20004 20.9998V6.99982L6.20004 11.9998M21 20.9998V6.99982L18 11.9998M6.00004 16.9998H18M6.00004 16.9998L8.00004 18.9998M6.00004 16.9998L8.00004 14.9998M18 16.9998L16 18.9998M18 16.9998L16 14.9998" stroke="#9747FF" stroke-linecap="round" stroke-linejoin="round"/>
</svg>
