<svg width="24" height="24" viewBox="0 0 24 24" fill="none" xmlns="http://www.w3.org/2000/svg">
<path d="M12 22C17.5228 22 22 17.5228 22 12C22 6.47715 17.5228 2 12 2C6.47715 2 2 6.47715 2 12C2 17.5228 6.47715 22 12 22Z" stroke="#9747FF" stroke-linecap="round" stroke-linejoin="round"/>
<path fill-rule="evenodd" clip-rule="evenodd" d="M8.76881 9.64186C8.26802 10.326 7.99868 11.1522 8.00001 12.0001C8.00001 12.1793 8.01181 12.3559 8.03461 12.5289L2.05841 10.9141C2.13215 10.2465 2.27218 9.5879 2.47641 8.94806L8.76881 9.64186ZM15.9654 12.5287C15.988 12.3559 16 12.1793 16 12.0001C16.0013 11.1522 15.732 10.326 15.2312 9.64186L21.5238 8.94826C21.728 9.5881 21.8681 10.2467 21.9418 10.9143L15.9654 12.5287ZM13.6348 15.6519L13.0048 21.9503C12.3365 22.017 11.6633 22.017 10.995 21.9503L10.365 15.6519C10.8793 15.8822 11.4365 16.0009 12 16.0001C12.5824 16.0001 13.1358 15.8757 13.6348 15.6519Z" stroke="#9747FF" stroke-linecap="round" stroke-linejoin="round"/>
<path d="M12 16C14.2091 16 16 14.2091 16 12C16 9.79086 14.2091 8 12 8C9.79086 8 8 9.79086 8 12C8 14.2091 9.79086 16 12 16Z" stroke="#9747FF" stroke-linecap="round" stroke-linejoin="round"/>
<path d="M12 22C17.5228 22 22 17.5228 22 12C22 6.47715 17.5228 2 12 2C6.47715 2 2 6.47715 2 12C2 17.5228 6.47715 22 12 22Z" stroke="#9747FF" stroke-linecap="round" stroke-linejoin="round"/>
<path d="M12 12.8C12.4418 12.8 12.8 12.4418 12.8 12C12.8 11.5582 12.4418 11.2 12 11.2C11.5582 11.2 11.2 11.5582 11.2 12C11.2 12.4418 11.5582 12.8 12 12.8Z" stroke="#9747FF" stroke-linecap="round" stroke-linejoin="round"/>
</svg>
