<svg width="24" height="24" viewBox="0 0 24 24" fill="none" xmlns="http://www.w3.org/2000/svg">
<path d="M19.4 5H4.6C3.71634 5 3 5.71634 3 6.6V17.4C3 18.2837 3.71634 19 4.6 19H19.4C20.2837 19 21 18.2837 21 17.4V6.6C21 5.71634 20.2837 5 19.4 5Z" stroke="#9747FF" stroke-linecap="round" stroke-linejoin="round"/>
<path d="M12 16H18M9 12L8.8306 11.7188C8.39367 11.6385 7.95025 11.5987 7.506 11.6C7.06182 11.5987 6.61846 11.6385 6.1816 11.7188L6 12" stroke="#9747FF" stroke-linecap="round" stroke-linejoin="round"/>
<path d="M7.39998 9.79995C7.8418 9.79995 8.19998 9.44178 8.19998 8.99995C8.19998 8.55812 7.8418 8.19995 7.39998 8.19995C6.95815 8.19995 6.59998 8.55812 6.59998 8.99995C6.59998 9.44178 6.95815 9.79995 7.39998 9.79995Z" stroke="#9747FF" stroke-linecap="round" stroke-linejoin="round"/>
<path d="M7.99999 16H9.99999M5.79999 16H5.99999M12 9H18M12 12H15" stroke="#9747FF" stroke-linecap="round" stroke-linejoin="round"/>
</svg>
