<svg width="24" height="24" viewBox="0 0 24 24" fill="none" xmlns="http://www.w3.org/2000/svg">
<path d="M12.4678 11.186L14.436 9.86439L14.4336 9.86499C13.1442 9.52559 12.946 8.39319 12.811 7.74859L12.5852 6.57759C12.4502 5.93299 12.5124 5.24499 12.8468 4.73399C13.1806 4.22319 13.8308 3.91879 14.4752 3.78399C15.1238 3.66939 15.8406 3.71039 16.3406 4.06019C16.8408 4.41039 17.1546 5.02579 17.269 5.67439L17.4948 6.84539C17.6016 7.45139 17.8148 8.47279 16.9696 9.25219C16.9724 9.29299 16.9158 9.34619 16.7754 9.41339L19.7778 11.486C20.8476 12.2006 21.0098 13.6184 20.9994 14.274C20.989 14.93 20.9994 21.0394 20.9994 21.0394H3C3 21.0394 3.0602 14.6262 3.0494 13.9404C3.0386 13.2546 3.2082 11.7718 4.3272 11.0244L7.415 8.95099C7.2644 8.87859 7.2052 8.82239 7.2114 8.77959C6.3374 7.97159 6.551 6.90959 6.658 6.27819L6.8862 5.05219C7.0014 4.37299 7.3252 3.72719 7.8462 3.35739C8.3666 2.98799 9.1158 2.94039 9.7946 3.05559C10.4698 3.19239 11.1518 3.50639 11.5046 4.03839C11.8576 4.57039 11.9276 5.28959 11.7908 5.96459L11.5626 7.19079C11.4272 7.85959 11.2282 9.02839 9.9158 9.40359C9.8974 9.41419 9.8818 9.42459 9.8598 9.43519L12.9478 11.5084C14.0666 12.256 14.2362 13.7386 14.2254 14.4244C14.2146 15.1104 14.2254 21.0394 14.2254 21.0394" stroke="#9747FF" stroke-linecap="round" stroke-linejoin="round"/>
</svg>
