<svg width="24" height="24" viewBox="0 0 24 24" fill="none" xmlns="http://www.w3.org/2000/svg">
<path d="M20.0008 2.90002V7.10002M22 5.00002H18M21 21C21 21 20.9826 20.0996 21 19C21.0174 17.9004 20.7454 17.523 18.9514 16.3244L14 13C16.0156 12.032 15.9824 10.1042 16 9.00002V7.00002C16.0176 5.89582 15.6964 4.78282 14.9838 4.04742C14.2718 3.31242 13.1044 3.01762 11.9998 3.00002C10.8962 3.01762 9.72902 3.31242 9.01702 4.04742C8.30422 4.78282 7.98302 5.89582 8.00082 7.00002V9.00002C8.01842 10.1042 7.98522 12.032 10.0008 13L5.04961 16.3244C3.25541 17.523 2.98342 17.9004 3.00082 19C3.01822 20.0996 3.00082 21 3.00082 21H21Z" stroke="#9747FF" stroke-linecap="round" stroke-linejoin="round"/>
</svg>
