<svg width="24" height="24" viewBox="0 0 24 24" fill="none" xmlns="http://www.w3.org/2000/svg">
<path d="M11.4 9.40002H17.4M11.4 12.4H14.8058M8.20002 16.4H9.80002M12 16.4H18.8M3.40002 6.99922C3.40002 6.11602 4.11682 5.40002 5.00142 5.40002H19.7986C20.683 5.40002 21.4 6.11602 21.4 6.99922V17.8008C21.4 18.684 20.6832 19.4 19.7986 19.4H5.00142C4.11702 19.4 3.40002 18.684 3.40002 17.8008V6.99922Z" stroke="#9747FF" stroke-linecap="round" stroke-linejoin="round"/>
<path d="M9.00799 12.4645C8.7976 12.2535 8.54759 12.0862 8.27231 11.9721C7.99704 11.8581 7.70194 11.7996 7.40399 11.8001C7.10603 11.7996 6.81092 11.8581 6.53564 11.9721C6.26037 12.0861 6.01035 12.2534 5.79999 12.4645" stroke="#9747FF" stroke-linecap="round" stroke-linejoin="round"/>
<path d="M7.39998 10.2001C7.8418 10.2001 8.19998 9.84193 8.19998 9.4001C8.19998 8.95827 7.8418 8.6001 7.39998 8.6001C6.95815 8.6001 6.59998 8.95827 6.59998 9.4001C6.59998 9.84193 6.95815 10.2001 7.39998 10.2001Z" stroke="#9747FF" stroke-linecap="round" stroke-linejoin="round"/>
</svg>
