<svg width="24" height="24" viewBox="0 0 24 24" fill="none" xmlns="http://www.w3.org/2000/svg">
<path d="M12 22C17.5228 22 22 17.5228 22 12C22 6.47715 17.5228 2 12 2C6.47715 2 2 6.47715 2 12C2 17.5228 6.47715 22 12 22Z" stroke="#9747FF" stroke-linecap="round" stroke-linejoin="round"/>
<path d="M20.683 7.38933L18.9074 7.93213L18.658 7.74973L17.6306 8.16953L17.2748 8.47453L16.889 8.32453L15.8544 9.34653L14.8848 8.34393L15.5486 7.65013L14.4634 7.21373L14.1336 6.87613L13.0008 6.88953L11.5778 7.71413L11.7064 8.34673L10.5998 9.38473L9.7606 10.0375L9.9704 11.1221L11.0302 11.3393L10.3308 11.9141L10.3632 12.5147L8.0136 14.0553L7.0924 15.3459L7.0978 16.7399L8.534 16.6867L9.4044 15.5687L10.5788 15.0829L11.2 15.9999L11.6 14.7999L12.2168 15.5159L13.0632 16.8257L13.6 16.3999L14.9314 17.1029L15.389 16.9327L15.311 19.2627L13.6412 19.5991L12.9004 19.3089L12.1228 19.8037L10.7428 19.0581L10.3428 18.2453L9.3418 18.2811L8.5612 18.5573L7.582 18.8167L6.8 18.5999L6 19.9999M9 2.59993L9.6052 4.39833L10.1722 5.12793L12.054 4.07793L12.0756 3.54093L13.0124 2.11853M8.26 11.3295L8.0776 12.0015L5.268 12.5591L5.8602 10.8595L3.909 10.4261L5.2056 9.12733L6.331 7.39993L6.7906 8.06233L7.834 10.9207L8.26 11.3295Z" stroke="#9747FF" stroke-linecap="round" stroke-linejoin="round"/>
</svg>
