<svg width="24" height="24" viewBox="0 0 24 24" fill="none" xmlns="http://www.w3.org/2000/svg">
<path fill-rule="evenodd" clip-rule="evenodd" d="M13 6C13 8.7338 15.194 10.9552 17.9174 10.9994L18 11V18.4008C18.0001 18.6109 17.9588 18.8189 17.8784 19.0131C17.7981 19.2072 17.6802 19.3835 17.5316 19.5321C17.383 19.6806 17.2066 19.7984 17.0125 19.8787C16.8184 19.9589 16.6103 20.0002 16.4002 20H7.6C7.38993 20.0001 7.1819 19.9588 6.9878 19.8784C6.79369 19.7981 6.61732 19.6803 6.46874 19.5318C6.32016 19.3833 6.20229 19.207 6.12186 19.0129C6.04144 18.8189 6.00003 18.6109 6 18.4008V7.5992C5.99989 7.38911 6.04121 7.18106 6.12157 6.98695C6.20194 6.79284 6.31979 6.61648 6.46837 6.46795C6.61696 6.31942 6.79336 6.20164 6.9875 6.12135C7.18164 6.04105 7.38971 5.99982 7.5998 6H13Z" stroke="#9747FF" stroke-linecap="round" stroke-linejoin="round"/>
<path d="M9 21V3L13.9998 2.9998C13.3493 3.86461 12.9983 4.91785 13 6C13 7.6358 13.7856 9.088 15 10.0002V21M12 20V6M15.5 6H20.5M18 3.5V8.5" stroke="#9747FF" stroke-linecap="round" stroke-linejoin="round"/>
<path d="M18 11C20.7614 11 23 8.76142 23 6C23 3.23858 20.7614 1 18 1C15.2386 1 13 3.23858 13 6C13 8.76142 15.2386 11 18 11Z" stroke="#9747FF" stroke-linecap="round" stroke-linejoin="round"/>
</svg>
