<svg width="24" height="24" viewBox="0 0 24 24" fill="none" xmlns="http://www.w3.org/2000/svg">
<path fill-rule="evenodd" clip-rule="evenodd" d="M3 6.802C2.99995 6.59166 3.04133 6.38337 3.12178 6.18902C3.20223 5.99467 3.32018 5.81807 3.46889 5.66931C3.61759 5.52055 3.79415 5.40254 3.98846 5.32201C4.18278 5.24149 4.39106 5.20003 4.6014 5.2H19.3986C19.609 5.19982 19.8174 5.24113 20.0118 5.32158C20.2062 5.40203 20.3828 5.52004 20.5316 5.66884C20.6803 5.81765 20.7983 5.99433 20.8787 6.18877C20.959 6.38321 21.0003 6.5916 21 6.802V19.398C21.0001 19.6083 20.9587 19.8166 20.8782 20.011C20.7978 20.2053 20.6798 20.3819 20.5311 20.5307C20.3824 20.6795 20.2059 20.7975 20.0115 20.878C19.8172 20.9585 19.6089 21 19.3986 21H4.6014C4.391 21.0002 4.18263 20.9589 3.98822 20.8784C3.7938 20.798 3.61717 20.68 3.46842 20.5312C3.31967 20.3824 3.20173 20.2057 3.12135 20.0112C3.04098 19.8168 2.99974 19.6084 3 19.398V6.802Z" stroke="#9747FF" stroke-linecap="round" stroke-linejoin="round"/>
<path d="M20.8 6.175L18.6454 10.709C18.289 11.422 17.2854 12 16.4002 12H7.60001C6.71641 12 5.72801 11.4164 5.39101 10.694L3.20001 6.175M8.00001 12V15M16 12V15M8.80001 5.2H15.2C15.2 5.2 15.2 2.788 12 2.8C8.80001 2.8122 8.80001 5.2 8.80001 5.2Z" stroke="#9747FF" stroke-linecap="round" stroke-linejoin="round"/>
</svg>
