<svg width="24" height="24" viewBox="0 0 24 24" fill="none" xmlns="http://www.w3.org/2000/svg">
<path fill-rule="evenodd" clip-rule="evenodd" d="M16.1506 21.9108H7.87864C7.45429 21.9108 7.04732 21.7422 6.74727 21.4422C6.44721 21.1421 6.27864 20.7351 6.27864 20.3108V6.0644C6.27864 5.64005 6.44721 5.23309 6.74727 4.93303C7.04732 4.63297 7.45429 4.4644 7.87864 4.4644H16.1506C16.575 4.4644 16.9819 4.63297 17.282 4.93303C17.5821 5.23309 17.7506 5.64005 17.7506 6.0644V20.3108C17.7506 20.7351 17.5821 21.1421 17.282 21.4422C16.9819 21.7422 16.575 21.9108 16.1506 21.9108Z" stroke="#9747FF" stroke-linecap="round" stroke-linejoin="round"/>
<path d="M12.1118 11.2212V13.8052M17.7506 6.8984L15.617 10.446C15.4747 10.6825 15.2737 10.8783 15.0334 11.0141C14.7932 11.15 14.5218 11.2214 14.2458 11.2214H9.774C9.50045 11.2214 9.23146 11.1512 8.99274 11.0176C8.75401 10.8841 8.55352 10.6915 8.4104 10.4584L6.2786 6.9854V6.0644C6.2786 5.64005 6.44717 5.23308 6.74723 4.93303C7.04729 4.63297 7.45425 4.4644 7.8786 4.4644H16.1506C16.5749 4.4644 16.9819 4.63297 17.282 4.93303C17.582 5.23308 17.7506 5.64005 17.7506 6.0644V6.8984ZM19.2292 21.3986H17.7506V14.826H19.2292C19.6535 14.826 20.0605 14.9946 20.3606 15.2946C20.6606 15.5947 20.8292 16.0017 20.8292 16.426V19.7986C20.8292 20.2229 20.6606 20.6299 20.3606 20.93C20.0605 21.23 19.6535 21.3986 19.2292 21.3986ZM6.2786 21.3986H4.8C4.37565 21.3986 3.96869 21.23 3.66863 20.93C3.36857 20.6299 3.2 20.2229 3.2 19.7986V16.426C3.2 16.0017 3.36857 15.5947 3.66863 15.2946C3.96869 14.9946 4.37565 14.826 4.8 14.826H6.2786V21.3986ZM14.2876 4.4644H9.936V3.9056C9.936 3.45324 10.1157 3.01942 10.4356 2.69956C10.7554 2.37969 11.1892 2.2 11.6416 2.2H12.582C13.0344 2.2 13.4682 2.37969 13.788 2.69956C14.1079 3.01942 14.2876 3.45324 14.2876 3.9056V4.4644Z" stroke="#9747FF" stroke-linecap="round" stroke-linejoin="round"/>
</svg>
