<svg width="24" height="24" viewBox="0 0 24 24" fill="none" xmlns="http://www.w3.org/2000/svg">
<path d="M14 21V17L12 14L13 8.00001M13 8.00001L12 7.20001L11 14V17L9 20M13 8.00001L14 11H17M17 12.8V21M13.8 4.00001C13.8 4.21219 13.7157 4.41567 13.5657 4.5657C13.4157 4.71573 13.2122 4.80001 13 4.80001C12.7878 4.80001 12.5843 4.71573 12.4343 4.5657C12.2843 4.41567 12.2 4.21219 12.2 4.00001C12.2 3.78784 12.2843 3.58436 12.4343 3.43433C12.5843 3.2843 12.7878 3.20001 13 3.20001C13.2122 3.20001 13.4157 3.2843 13.5657 3.43433C13.7157 3.58436 13.8 3.78784 13.8 4.00001Z" stroke="#9747FF" stroke-linecap="round" stroke-linejoin="round"/>
</svg>
