<svg width="24" height="24" viewBox="0 0 24 24" fill="none" xmlns="http://www.w3.org/2000/svg">
<path d="M20.6494 17.3646C20.5754 17.2834 17.5574 14.2632 17.5574 14.2632C17.1162 13.9392 16.5002 13.8092 16.0108 14.2638C16.0084 14.2666 14.5942 15.5546 14.5942 15.5546C14.4378 15.5282 13.269 15.327 10.9452 12.9946C8.62 10.6634 8.465 9.538 8.4386 9.3814C8.4386 9.3814 9.7466 7.9872 9.7498 7.9846C10.2026 7.4936 10.085 6.8876 9.7622 6.4454C9.7622 6.4454 6.7568 3.425 6.676 3.3506C6.1286 2.8424 5.3238 2.8974 4.8184 3.4466C4.815 3.4494 3.8764 4.388 3.8764 4.388C1.8554 6.7956 3.316 10.4408 8.405 15.544C13.4936 20.6478 17.1728 22.1574 19.5726 20.1298L20.5558 19.231C21.1044 18.7234 21.1556 17.913 20.6494 17.3646Z" stroke="#9747FF" stroke-linecap="round" stroke-linejoin="round"/>
</svg>
