<svg width="24" height="24" viewBox="0 0 24 24" fill="none" xmlns="http://www.w3.org/2000/svg">
<path d="M8.0002 16.0004H16.0002M6.0002 13.0004H18.0002M3 19H21V5H3V19Z" stroke="#9747FF" stroke-linecap="round" stroke-linejoin="round"/>
<path d="M8.00019 12.0006C7.99952 11.4752 8.1027 10.9548 8.30379 10.4694C8.50489 9.98393 8.79994 9.54303 9.17199 9.172C9.54296 8.8 9.98379 8.50499 10.4692 8.30393C10.9545 8.10287 11.4748 7.99971 12.0002 8.0004C12.5255 7.99971 13.0459 8.10287 13.5312 8.30393C14.0166 8.50499 14.4574 8.8 14.8284 9.172C15.2004 9.54303 15.4955 9.98393 15.6966 10.4694C15.8977 10.9548 16.0009 11.4752 16.0002 12.0006" stroke="#9747FF" stroke-linecap="round" stroke-linejoin="round"/>
</svg>
