<svg width="24" height="24" viewBox="0 0 24 24" fill="none" xmlns="http://www.w3.org/2000/svg">
<path d="M13.125 15.917V20.475M10.7918 20.475V15.917M17.25 9.22501C17.25 12.7458 17.25 15.975 12 15.975C6.75 15.975 6.75 12.7458 6.75 9.22501H6H18H17.25ZM10.5 9.22501H8.1666V4.76661C8.17062 4.45982 8.2953 4.16697 8.51367 3.95145C8.73203 3.73592 9.02649 3.61508 9.3333 3.61508C9.64011 3.61508 9.93457 3.73592 10.1529 3.95145C10.3713 4.16697 10.496 4.45982 10.5 4.76661V9.22501ZM15.8332 9.22501H13.5V4.76661C13.5057 4.46095 13.6311 4.16972 13.8492 3.95555C14.0674 3.74139 14.3609 3.62141 14.6666 3.62141C14.9723 3.62141 15.2658 3.74139 15.484 3.95555C15.7021 4.16972 15.8275 4.46095 15.8332 4.76661V9.22501Z" stroke="#9747FF" stroke-linecap="round" stroke-linejoin="round"/>
</svg>
