<svg width="24" height="24" viewBox="0 0 24 24" fill="none" xmlns="http://www.w3.org/2000/svg">
<path fill-rule="evenodd" clip-rule="evenodd" d="M22 12C22 17.5228 17.5228 22 12 22C6.4772 22 2 17.5228 2 12C2 6.4772 6.4772 2 12 2C17.5228 2 22 6.4772 22 12Z" stroke="#9747FF" stroke-linecap="round" stroke-linejoin="round"/>
<path d="M7.71261 16.4126L16.389 7.61561M17.0196 15.0226C17.0196 16.138 16.1156 17.0422 15 17.0422C13.8846 17.0422 12.9804 16.138 12.9804 15.0226C12.9804 13.9072 13.8846 13.003 15 13.003C16.1154 13.003 17.0196 13.907 17.0196 15.0226ZM11.0196 9.00001C11.0196 10.1154 10.1156 11.0196 9.00001 11.0196C7.88461 11.0196 6.98041 10.1154 6.98041 9.00001C6.98041 7.88461 7.88461 6.98041 9.00001 6.98041C10.1154 6.98041 11.0196 7.88461 11.0196 9.00001Z" stroke="#9747FF" stroke-linecap="round" stroke-linejoin="round"/>
</svg>
