<svg width="24" height="24" viewBox="0 0 24 24" fill="none" xmlns="http://www.w3.org/2000/svg">
<path d="M11 19C15.4183 19 19 15.4183 19 11C19 6.58172 15.4183 3 11 3C6.58172 3 3 6.58172 3 11C3 15.4183 6.58172 19 11 19Z" stroke="#9747FF" stroke-linecap="round" stroke-linejoin="round"/>
<path d="M16.8 16.8L21 21M12.7778 7.59998C12.4328 7.59968 12.0924 7.67986 11.7838 7.83415C11.4752 7.98845 11.2068 8.21259 11 8.48878C10.7932 8.21259 10.5248 7.98845 10.2162 7.83415C9.90758 7.67986 9.56723 7.59968 9.2222 7.59998C7.995 7.59998 7 8.59498 7 9.82218C7 11.6 11 15.6 11 15.6C11 15.6 15 11.6 15 9.82218C15 8.59498 14.005 7.59998 12.7778 7.59998Z" stroke="#9747FF" stroke-linecap="round" stroke-linejoin="round"/>
</svg>
