<svg width="24" height="24" viewBox="0 0 24 24" fill="none" xmlns="http://www.w3.org/2000/svg">
<path d="M10.0001 20.9999H16.0001M13.0001 20.9999V16.9999M13.0001 10.9999H5.60007M11.2495 13.7999H18.6001C19.0244 13.7999 19.4314 13.9684 19.7314 14.2685C20.0315 14.5686 20.2001 14.9755 20.2001 15.3999C20.2001 15.8242 20.0315 16.2312 19.7314 16.5312C19.4314 16.8313 19.0244 16.9999 18.6001 16.9999H10.4001C10.1385 16.9999 9.88092 16.9357 9.64989 16.813C9.41885 16.6904 9.22142 16.5129 9.07487 16.2963L4.47487 9.49628C4.29582 9.23162 4.20011 8.91941 4.20007 8.59988V4.59988C4.20007 4.17553 4.36864 3.76857 4.6687 3.46851C4.96876 3.16845 5.37573 2.99988 5.80007 2.99988C6.22442 2.99988 6.63139 3.16845 6.93144 3.46851C7.2315 3.76857 7.40007 4.17553 7.40007 4.59988V8.10948L11.2495 13.7999Z" stroke="#9747FF" stroke-linecap="round" stroke-linejoin="round"/>
<path fill-rule="evenodd" clip-rule="evenodd" d="M18.0001 7.32951L15.9605 8.79991L16.7461 6.42971L14.7001 4.96811L17.2251 4.97351L18.0001 2.59991L18.7751 4.97351L21.3001 4.96811L19.2541 6.42971L20.0397 8.79991L18.0001 7.32951Z" stroke="#9747FF" stroke-linecap="round" stroke-linejoin="round"/>
</svg>
