<svg width="24" height="24" viewBox="0 0 24 24" fill="none" xmlns="http://www.w3.org/2000/svg">
<path fill-rule="evenodd" clip-rule="evenodd" d="M6.6 6H17.4C17.8243 6 18.2313 6.16857 18.5314 6.46863C18.8314 6.76869 19 7.17565 19 7.6V19.4C19 19.8243 18.8314 20.2313 18.5314 20.5314C18.2313 20.8314 17.8243 21 17.4 21H6.6C6.17565 21 5.76869 20.8314 5.46863 20.5314C5.16857 20.2313 5 19.8243 5 19.4V7.6C5 7.17565 5.16857 6.76869 5.46863 6.46863C5.76869 6.16857 6.17565 6 6.6 6Z" stroke="#9747FF" stroke-linecap="round" stroke-linejoin="round"/>
<path d="M5 17H19.0014M5 17V10.1C5 9.70215 5.15804 9.32062 5.43934 9.03932C5.72064 8.75801 6.10218 8.59998 6.5 8.59998C6.89782 8.59998 7.27936 8.75801 7.56066 9.03932C7.84197 9.32062 8 9.70215 8 10.1V17H5ZM16 17V10.3C16 9.90215 16.158 9.52062 16.4393 9.23931C16.7206 8.95801 17.1022 8.79998 17.5 8.79998C17.8978 8.79998 18.2794 8.95801 18.5607 9.23931C18.842 9.52062 19 9.90215 19 10.3V17H16Z" stroke="#9747FF" stroke-linecap="round" stroke-linejoin="round"/>
</svg>
