<svg width="24" height="24" viewBox="0 0 24 24" fill="none" xmlns="http://www.w3.org/2000/svg">
<path d="M9 3L8 4V6H10V4L9 3ZM9 3V2M6.8 6H17.2C17.4122 6 17.6157 6.08429 17.7657 6.23431C17.9157 6.38434 18 6.58783 18 6.8V17.2C18 17.4122 17.9157 17.6157 17.7657 17.7657C17.6157 17.9157 17.4122 18 17.2 18H6.8C6.58783 18 6.38434 17.9157 6.23431 17.7657C6.08429 17.6157 6 17.4122 6 17.2V6.8C6 6.58783 6.08429 6.38434 6.23431 6.23431C6.38434 6.08429 6.58783 6 6.8 6Z" stroke="#9747FF" stroke-linecap="round" stroke-linejoin="round"/>
<path d="M8 21C8.55228 21 9 20.5523 9 20C9 19.4477 8.55228 19 8 19C7.44772 19 7 19.4477 7 20C7 20.5523 7.44772 21 8 21Z" stroke="#9747FF" stroke-linecap="round" stroke-linejoin="round"/>
<path d="M16 21C16.5523 21 17 20.5523 17 20C17 19.4477 16.5523 19 16 19C15.4477 19 15 19.4477 15 20C15 20.5523 15.4477 21 16 21Z" stroke="#9747FF" stroke-linecap="round" stroke-linejoin="round"/>
<path d="M6 7.99998V4.99998C6 3.66658 5.3334 2.99998 4 2.99998M14 2.99998C15.6568 2.99998 17 4.34318 17 5.99998H11C11 4.34318 12.3432 2.99998 14 2.99998ZM14 2.99998V2.59998" stroke="#9747FF" stroke-linecap="round" stroke-linejoin="round"/>
</svg>
