<svg width="24" height="24" viewBox="0 0 24 24" fill="none" xmlns="http://www.w3.org/2000/svg">
<path d="M12 12V12.2M8 12V12.2M16 12V12.2M12 6V3M14 15V15.2M10 15V15.2M18 15V15.2M6 15V15.2M16.1 18V18.2M12.1 18V18.2M20.1 18V18.2M8.1 18V18.2M4.1 18V18.2M14.1 21V21.2M10.1 21V21.2M6.1 21V21.2M2.1 21V21.2M18.1 21V21.2M22.1 21V21.2M7.6 6H16.4C16.8243 6 17.2313 6.16857 17.5314 6.46863C17.8314 6.76869 18 7.17565 18 7.6V9H6V7.6C6 7.17565 6.16857 6.76869 6.46863 6.46863C6.76869 6.16857 7.17565 6 7.6 6Z" stroke="#9747FF" stroke-linecap="round" stroke-linejoin="round"/>
</svg>
