<svg width="24" height="24" viewBox="0 0 24 24" fill="none" xmlns="http://www.w3.org/2000/svg">
<path d="M8.11438 6.7785L12.0394 6.0285L15.9644 6.7785M15.8 15.6927C15.8 15.6927 14.184 16.8655 12.1016 16.8655C10.2422 16.8655 8.29598 15.6927 8.29598 15.6927M15.8 15.6927L18.0252 14.5011M15.8 15.6927L17.4252 12.9011" stroke="#9747FF" stroke-linecap="round" stroke-linejoin="round"/>
<path d="M13.914 13.0974L13.9144 14.7354L19.9994 17.8478C20.3125 18.0079 20.5752 18.2513 20.7588 18.5513C20.9423 18.8513 21.0394 19.1961 21.0394 19.5478V21.6536H3.03937V19.5486C3.03939 19.1967 3.13664 18.8517 3.32037 18.5516C3.5041 18.2515 3.76718 18.008 4.08057 17.848L10.1644 14.7404L10.1642 13.0974" stroke="#9747FF" stroke-linecap="round" stroke-linejoin="round"/>
<path fill-rule="evenodd" clip-rule="evenodd" d="M14.9644 2.67859C14.4338 2.14159 12.7944 2.52199 12.0394 2.52859C11.3328 2.53459 9.81818 2.18299 9.31438 2.67859C8.55298 3.42759 8.11438 6.77859 8.11438 6.77859C8.11438 6.77859 8.28938 8.95859 8.31438 9.68699C8.38878 11.8534 9.87158 13.612 12.0394 13.612C14.2074 13.612 15.69 11.8534 15.7644 9.68699C15.7894 8.95859 15.9644 6.77859 15.9644 6.77859C15.9644 6.77859 15.706 3.42899 14.9644 2.67859Z" stroke="#9747FF" stroke-linecap="round" stroke-linejoin="round"/>
</svg>
