<svg width="24" height="24" viewBox="0 0 24 24" fill="none" xmlns="http://www.w3.org/2000/svg">
<path d="M11.9998 3.099V6C11.991 6.6208 11.7378 7.294 11.2638 7.768C10.2986 8.733 8.733 8.7332 7.7674 7.768L5.6988 5.7056L7.781 7.8044C8.2298 8.26541 8.48058 8.88361 8.4798 9.527C8.4798 10.8928 7.3726 12 6.0072 12L3.099 11.9932L6.0554 12.005C6.69877 12.0135 7.31329 12.2734 7.7676 12.729C8.733 13.6944 8.7332 15.26 7.7676 16.2256L5.7056 18.294L7.805 16.212C8.2659 15.7632 8.88407 15.5124 9.5274 15.5134C10.8928 15.5132 12 16.6198 12 17.9856V20.901" stroke="#9747FF" stroke-linecap="round" stroke-linejoin="round"/>
<path d="M11.9956 20.8V16.0056C9.78339 16.0056 7.98979 14.2124 7.98979 12C7.98979 9.78755 9.78339 7.99435 11.9956 7.99435V3.19995" stroke="#9747FF" stroke-linecap="round" stroke-linejoin="round"/>
</svg>
