<svg width="24" height="24" viewBox="0 0 24 24" fill="none" xmlns="http://www.w3.org/2000/svg">
<path d="M13.8 12.6C13.1896 12.439 12.6098 12.2712 11.9994 11.9998C9 10.6668 6 10.6668 3 11.9998M13 16.2C12.3896 16.039 12.6098 16.0712 11.9994 15.7998C9 14.4668 6 14.4668 3 15.7998M13.8 8.80002C13.1896 8.63902 12.6098 8.47122 11.9994 8.19982C9 6.86682 6 6.86682 3 8.19982" stroke="#9747FF" stroke-linecap="round" stroke-linejoin="round"/>
<path d="M17 12V16M13.8 14.5996V5.8H13.8248C14.0216 4.2214 15.368 3 17 3C18.632 3 19.9784 4.2214 20.1752 5.8H20.2V14.5996C20.7205 15.2915 21.0014 16.1342 21 17C21 19.2092 19.2092 21 17 21C14.7908 21 13 19.2092 13 17C12.9986 16.1342 13.2795 15.2915 13.8 14.5996Z" stroke="#9747FF" stroke-linecap="round" stroke-linejoin="round"/>
<path d="M17 17.8C17.4418 17.8 17.8 17.4418 17.8 17C17.8 16.5581 17.4418 16.2 17 16.2C16.5582 16.2 16.2 16.5581 16.2 17C16.2 17.4418 16.5582 17.8 17 17.8Z" stroke="#9747FF" stroke-linecap="round" stroke-linejoin="round"/>
</svg>
