<svg width="24" height="24" viewBox="0 0 24 24" fill="none" xmlns="http://www.w3.org/2000/svg">
<path fill-rule="evenodd" clip-rule="evenodd" d="M20.6208 18.1526C20.7708 18.3008 20.8901 18.4772 20.9717 18.6717C21.0533 18.8662 21.0957 19.075 21.0963 19.2859C21.097 19.4968 21.0559 19.7058 20.9755 19.9008C20.8951 20.0958 20.7769 20.273 20.6278 20.4221C20.4786 20.5713 20.3015 20.6895 20.1065 20.7699C19.9115 20.8504 19.7025 20.8914 19.4916 20.8908C19.2806 20.8902 19.0719 20.8479 18.8774 20.7663C18.6829 20.6847 18.5064 20.5654 18.3582 20.4154L10.4694 12.4518C8.59138 13.4084 6.23538 13.101 4.66478 11.5302C3.21478 10.0802 2.84118 7.96175 3.54438 6.16735L6.46738 9.09015L9.29598 6.26195L6.37278 3.33895C8.16718 2.63555 10.2858 3.00915 11.7358 4.45915C13.3066 6.02995 13.6138 8.38575 12.6574 10.2638L20.6208 18.1526Z" stroke="#9747FF" stroke-linecap="round" stroke-linejoin="round"/>
<path d="M21.0896 2.99426L20.5314 3.00626L18.9758 5.12746L21.0972 3.57186V3.00626L13.3544 10.7489M10.7314 13.3401C11.0314 13.6401 11.2 14.047 11.2 14.4714C11.2 14.8957 11.0314 15.3026 10.7314 15.6027L5.92321 20.4111C5.62315 20.7111 5.21617 20.8797 4.79181 20.8797C4.36746 20.8797 3.96048 20.7111 3.66041 20.4111C3.36035 20.111 3.19177 19.704 3.19177 19.2797C3.19177 18.8553 3.36035 18.4483 3.66041 18.1483L8.46881 13.3401C8.76887 13.04 9.1758 12.8715 9.60011 12.8715C10.0244 12.8715 10.4314 13.04 10.7314 13.3401Z" stroke="#9747FF" stroke-linecap="round" stroke-linejoin="round"/>
</svg>
