<svg width="24" height="24" viewBox="0 0 24 24" fill="none" xmlns="http://www.w3.org/2000/svg">
<path d="M10.1137 13.4718L8.03647 12.0772C8.0921 12.0507 8.1463 12.0213 8.19887 11.9892C8.29393 11.9315 8.3825 11.8637 8.46307 11.787C8.53867 11.7146 8.60247 11.6376 8.65627 11.5578C8.87147 11.2388 8.92727 10.8736 8.94387 10.5644C8.95007 10.4484 8.95087 10.3404 8.95227 10.2458V9.32981C8.96027 8.82441 8.81327 8.31481 8.48707 7.97781C8.16107 7.64161 7.62647 7.50661 7.12107 7.49841C6.61547 7.50641 6.08107 7.64161 5.75507 7.97801C5.42867 8.31481 5.28167 8.82441 5.28967 9.33001V10.2458C5.29767 10.7512 5.28247 11.6338 6.20567 12.0772L3.93847 13.5992C3.11687 14.1482 2.99247 15.0882 3.00047 15.5918L3.00147 15.6834L3.00207 15.7454V15.7586C3.00687 16.3626 3.00027 17.5866 3.00027 17.5866H8.19867M15.6911 17.5868H20.9471C20.9471 17.5868 20.9409 16.3628 20.9455 15.7584V15.756C20.946 15.7012 20.9466 15.6464 20.9473 15.5916C20.9505 15.3989 20.9342 15.2064 20.8987 15.017C20.8733 14.8794 20.8367 14.7441 20.7893 14.6124C20.7554 14.5185 20.7152 14.427 20.6691 14.3384C20.6208 14.2453 20.5655 14.156 20.5035 14.0714C20.3677 13.8863 20.2005 13.7265 20.0093 13.5994L17.7421 12.0774C17.7977 12.0508 17.8519 12.0215 17.9045 11.9894C18.0057 11.9274 18.0931 11.8594 18.1685 11.7868C18.2443 11.7148 18.3081 11.6376 18.3619 11.5578C18.5771 11.2388 18.6329 10.8738 18.6495 10.5644C18.6555 10.4486 18.6565 10.3406 18.6579 10.2456V9.33001C18.6659 8.82441 18.5189 8.31481 18.1927 7.97801C17.8667 7.64141 17.3321 7.50661 16.8265 7.49841C16.3211 7.50661 15.7865 7.64141 15.4605 7.97801C15.1343 8.31481 14.9873 8.82441 14.9953 9.33001V10.2456C15.0033 10.7512 14.9881 11.634 15.9111 12.0772L13.7765 13.5104" stroke="#9747FF" stroke-linecap="round" stroke-linejoin="round"/>
<path d="M15.01 9.0216L12.8604 7.5788C12.9184 7.5508 12.9724 7.5216 13.0228 7.4906C13.1179 7.43288 13.2065 7.36509 13.287 7.2884C13.3626 7.216 13.4264 7.1392 13.4802 7.0594C13.6954 6.7404 13.7512 6.3752 13.7678 6.066C13.774 5.95 13.7748 5.842 13.7762 5.7472V4.8312C13.7844 4.326 13.6372 3.8164 13.3108 3.4796C12.9848 3.143 12.4504 3.0082 11.9448 3C11.4392 3.008 10.905 3.143 10.579 3.4796C10.2526 3.8164 10.1056 4.326 10.1136 4.8314V5.7472C10.1216 6.2528 10.1064 7.1352 11.0296 7.5788L8.93284 8.9864M16.064 19.1716V19.169C16.0645 19.1143 16.0651 19.0597 16.0656 19.005C16.0686 18.8123 16.0523 18.6197 16.017 18.4302C15.9916 18.2926 15.955 18.1573 15.9076 18.0256C15.8737 17.9316 15.8336 17.8399 15.7876 17.7512C15.7402 17.6606 15.6852 17.5712 15.6218 17.4844C15.4861 17.2993 15.3189 17.1396 15.1278 17.0124L12.8604 15.4904C12.9184 15.4626 12.9724 15.4332 13.0228 15.4024C13.1179 15.3446 13.2065 15.2768 13.287 15.2C13.3626 15.1276 13.4264 15.0508 13.4802 14.971C13.6954 14.6518 13.7512 14.287 13.7678 13.9776C13.774 13.8616 13.7748 13.7536 13.7762 13.6588V12.743C13.7844 12.2376 13.6372 11.7278 13.3108 11.3912C12.9848 11.0546 12.4504 10.9196 11.9448 10.9116C11.4392 10.9196 10.905 11.0546 10.579 11.3912C10.2526 11.7278 10.1054 12.2376 10.1136 12.7432V13.6588C10.1216 14.1644 10.1064 15.047 11.0296 15.4904L8.76244 17.0124C7.94084 17.5612 7.81644 18.5012 7.82444 19.0048L7.82544 19.0968L7.82604 19.1588V19.1716C7.83064 19.7758 7.82424 21 7.82424 21H16.0656C16.0656 21 16.0592 19.776 16.064 19.1716Z" stroke="#9747FF" stroke-linecap="round" stroke-linejoin="round"/>
</svg>
