<svg width="24" height="24" viewBox="0 0 24 24" fill="none" xmlns="http://www.w3.org/2000/svg">
<path d="M12 22.9999C14.7614 22.9999 17 20.7613 17 17.9999C17 15.2385 14.7614 12.9999 12 12.9999C9.23858 12.9999 7 15.2385 7 17.9999C7 20.7613 9.23858 22.9999 12 22.9999Z" stroke="#9747FF" stroke-linecap="round" stroke-linejoin="round"/>
<path d="M7.39999 15.9999L12 17.9999M12 17.9999L16.6 15.9999M12 17.9999V22.9999" stroke="#9747FF" stroke-linecap="round" stroke-linejoin="round"/>
<path d="M12 18.9999C12.5523 18.9999 13 18.5522 13 17.9999C13 17.4476 12.5523 16.9999 12 16.9999C11.4477 16.9999 11 17.4476 11 17.9999C11 18.5522 11.4477 18.9999 12 18.9999Z" stroke="#9747FF" stroke-linecap="round" stroke-linejoin="round"/>
<path d="M17 18H20V15.0444C20.0134 14.1892 19.802 13.8956 18.4066 12.9634L13.5556 10.378C15.1232 9.62498 15.0974 8.12558 15.111 7.26678V5.71138C15.1248 4.85238 14.875 3.98678 14.3206 3.41478C13.767 2.84298 12.859 2.61358 12 2.59998C11.1414 2.61358 10.2336 2.84298 9.68 3.41458C9.1254 3.98658 8.8758 4.85218 8.8894 5.71118V7.26658C8.9032 8.12538 8.8774 9.62478 10.445 10.3778L5.594 12.9634C4.1986 13.8956 3.987 14.1892 4.0006 15.0444L4 18H7" stroke="#9747FF" stroke-linecap="round" stroke-linejoin="round"/>
</svg>
