<svg width="24" height="24" viewBox="0 0 24 24" fill="none" xmlns="http://www.w3.org/2000/svg">
<path fill-rule="evenodd" clip-rule="evenodd" d="M16.0658 21.0001C16.0658 21.0001 16.0576 19.4469 16.0658 18.9227C16.0741 18.3985 15.9464 17.4195 15.1052 16.8481L12.7831 15.2631C13.7284 14.8017 13.7128 13.8827 13.7211 13.3561V12.4027C13.7294 11.8761 13.5787 11.3455 13.2446 10.9949C12.9106 10.6445 12.3633 10.5041 11.8454 10.4957C11.328 10.5041 10.7803 10.6445 10.4467 10.9949C10.1123 11.3455 9.96176 11.8761 9.97002 12.4027V13.3561C9.97828 13.8827 9.96274 14.8017 10.9078 15.2631L8.58609 16.8481C7.74471 17.4195 7.61704 18.3985 7.6253 18.9227C7.63337 19.4469 7.6253 21.0001 7.6253 21.0001H16.0658Z" stroke="#9747FF" stroke-linecap="round" stroke-linejoin="round"/>
<path d="M7.6249 19.0618H3.04916C3.04916 19.0618 3.10818 14.5524 3.09756 13.8708C3.08693 13.1894 3.25277 11.716 4.34634 10.9734L7.36444 8.91322C7.2173 8.84122 7.15926 8.78522 7.16556 8.74282C6.311 7.94002 6.51972 6.88462 6.62457 6.25742L6.84746 5.03882C6.96018 4.36402 7.27631 3.72242 7.78582 3.35482C8.29434 2.98802 9.02674 2.94082 9.69008 3.05522C10.3501 3.19102 11.0168 3.50322 11.3614 4.03162C11.7065 4.56042 11.7749 5.27502 11.6412 5.94562L11.4181 7.16422C11.2857 7.82862 11.0913 8.99022 9.80851 9.36302C9.79061 9.37342 9.77507 9.38382 9.75382 9.39422L11.0158 10.6388M12.9374 10.7588L14.2267 9.82082L14.2243 9.82142C12.9639 9.48422 12.7701 8.35882 12.6381 7.71842L12.4176 6.55462C12.2856 5.91422 12.3466 5.23062 12.6734 4.72282C12.9995 4.21542 13.6351 3.91282 14.2648 3.77882C14.8989 3.66522 15.5994 3.70562 16.088 4.05342C16.5769 4.40142 16.8836 5.01302 16.9953 5.65742L17.2162 6.82102C17.3205 7.42302 17.5288 8.43802 16.7028 9.21242C16.7056 9.25302 16.6503 9.30562 16.513 9.37262L19.4475 11.432C20.4932 12.1422 20.6514 13.551 20.6416 14.2024C20.6313 14.854 20.6416 19.0618 20.6416 19.0618H16.0456" stroke="#9747FF" stroke-linecap="round" stroke-linejoin="round"/>
</svg>
