<svg width="24" height="24" viewBox="0 0 24 24" fill="none" xmlns="http://www.w3.org/2000/svg">
<path d="M15.0172 15.588H6.40002L8.40002 15.6C10.4 15.6 10.4 12.6 9.40002 12.6C7.40002 12.6 6.40002 12.588 6.40002 12.588C3.84522 12.588 2.40002 14.6 2.40002 16.6V21.6L15.9332 18.9212L20.7442 15.7872C20.916 15.6909 21.0672 15.5616 21.189 15.4068C21.3109 15.2521 21.401 15.0748 21.4544 14.8852C21.5077 14.6956 21.5231 14.4973 21.4998 14.3017C21.4765 14.1061 21.4148 13.917 21.3184 13.7452C21.1237 13.3983 20.7992 13.143 20.4163 13.0354C20.0333 12.9277 19.6233 12.9766 19.2764 13.1712L15.018 15.56M12 8.40002C13.1046 8.40002 14 7.45982 14 6.30002C14 5.14022 12.2858 3.30002 12 2.40002C11.6572 3.30002 10 5.14022 10 6.30002C10 7.45982 10.8954 8.40002 12 8.40002Z" stroke="#9747FF" stroke-linecap="round" stroke-linejoin="round"/>
</svg>
