<svg width="24" height="24" viewBox="0 0 24 24" fill="none" xmlns="http://www.w3.org/2000/svg">
<path d="M5.7824 19.3913C5.1764 19.3913 4.7824 19.7853 4.7824 20.3913V21.3913H17.7824V20.3913C17.7824 19.7853 17.3884 19.3913 16.7824 19.3913H5.7824ZM5.7824 19.3913V10.1229C5.7824 7.82292 4 6.08592 4 6.08592C4 6.08592 6.0824 3.79132 9.6932 3.16932C12.3958 2.70372 15.2978 2.81032 17.0354 2.81032C21.8222 2.81032 20.2054 10.0027 16.7824 13.8089L16.7534 19.3913H5.7824Z" stroke="#9747FF" stroke-linecap="round" stroke-linejoin="round"/>
<path d="M16.7824 16.3914L18.7824 15.3914M15.5492 11.0342C15.5492 11.0342 13.7076 6.69477 14.571 5.65677C14.9494 5.20197 16.4584 5.07997 16.9278 5.44037C17.5146 5.89097 17.331 7.79497 17.1318 8.39257C16.8652 9.19337 15.5492 11.0342 15.5492 11.0342Z" stroke="#9747FF" stroke-linecap="round" stroke-linejoin="round"/>
</svg>
